<mxfile host="app.diagrams.net" agent="Mozilla/5.0 (Windows NT 10.0; Win64; x64) AppleWebKit/537.36 (KHTML, like Gecko) Chrome/135.0.0.0 Safari/537.36" version="26.2.13">
  <diagram name="PÃ¡gina-1" id="huG13uhUI_xqkq6Hx3xQ">
    <mxGraphModel grid="1" page="1" gridSize="10" guides="1" tooltips="1" connect="1" arrows="1" fold="1" pageScale="1" pageWidth="827" pageHeight="1169" math="0" shadow="0">
      <root>
        <mxCell id="0" />
        <mxCell id="1" parent="0" />
        <mxCell id="bTpCfq0lczgkLvUcE9D3-68" value="" style="rounded=1;whiteSpace=wrap;html=1;fillColor=none;dashed=1;dashPattern=8 8;" vertex="1" parent="1">
          <mxGeometry x="435" y="540" width="380" height="470" as="geometry" />
        </mxCell>
        <mxCell id="bTpCfq0lczgkLvUcE9D3-69" value="" style="rounded=1;whiteSpace=wrap;html=1;fillColor=none;dashed=1;dashPattern=8 8;" vertex="1" parent="1">
          <mxGeometry x="10" y="540" width="380" height="470" as="geometry" />
        </mxCell>
        <mxCell id="bTpCfq0lczgkLvUcE9D3-1" value="" style="ellipse;whiteSpace=wrap;html=1;aspect=fixed;" vertex="1" parent="1">
          <mxGeometry x="440" y="140" width="80" height="80" as="geometry" />
        </mxCell>
        <mxCell id="bTpCfq0lczgkLvUcE9D3-2" value="" style="ellipse;whiteSpace=wrap;html=1;aspect=fixed;" vertex="1" parent="1">
          <mxGeometry x="475" y="175" width="10" height="10" as="geometry" />
        </mxCell>
        <mxCell id="bTpCfq0lczgkLvUcE9D3-3" value="" style="endArrow=none;dashed=1;html=1;dashPattern=12 12;strokeWidth=2;rounded=0;entryX=0.532;entryY=-0.095;entryDx=0;entryDy=0;entryPerimeter=0;exitX=1.025;exitY=0.437;exitDx=0;exitDy=0;exitPerimeter=0;" edge="1" parent="1" source="bTpCfq0lczgkLvUcE9D3-2" target="bTpCfq0lczgkLvUcE9D3-13">
          <mxGeometry width="50" height="50" relative="1" as="geometry">
            <mxPoint x="485" y="180" as="sourcePoint" />
            <mxPoint x="565" y="162.5" as="targetPoint" />
          </mxGeometry>
        </mxCell>
        <mxCell id="bTpCfq0lczgkLvUcE9D3-4" value="" style="curved=1;endArrow=classic;html=1;rounded=0;" edge="1" parent="1">
          <mxGeometry width="50" height="50" relative="1" as="geometry">
            <mxPoint x="540" y="150" as="sourcePoint" />
            <mxPoint x="500" y="110" as="targetPoint" />
            <Array as="points">
              <mxPoint x="530" y="130" />
            </Array>
          </mxGeometry>
        </mxCell>
        <mxCell id="bTpCfq0lczgkLvUcE9D3-5" value="" style="endArrow=none;dashed=1;html=1;dashPattern=1 3;strokeWidth=2;rounded=0;" edge="1" parent="1">
          <mxGeometry width="50" height="50" relative="1" as="geometry">
            <mxPoint x="640" y="180" as="sourcePoint" />
            <mxPoint x="480" y="70" as="targetPoint" />
            <Array as="points">
              <mxPoint x="480" y="180" />
            </Array>
          </mxGeometry>
        </mxCell>
        <mxCell id="bTpCfq0lczgkLvUcE9D3-7" style="edgeStyle=orthogonalEdgeStyle;rounded=0;orthogonalLoop=1;jettySize=auto;html=1;" edge="1" parent="1" source="bTpCfq0lczgkLvUcE9D3-6">
          <mxGeometry relative="1" as="geometry">
            <mxPoint x="555" y="160" as="targetPoint" />
            <Array as="points">
              <mxPoint x="555" y="100" />
              <mxPoint x="555" y="100" />
            </Array>
          </mxGeometry>
        </mxCell>
        <mxCell id="bTpCfq0lczgkLvUcE9D3-6" value="Mariposa" style="text;html=1;align=center;verticalAlign=middle;resizable=0;points=[];autosize=1;strokeColor=none;fillColor=none;" vertex="1" parent="1">
          <mxGeometry x="515" y="60" width="70" height="30" as="geometry" />
        </mxCell>
        <mxCell id="bTpCfq0lczgkLvUcE9D3-8" value="Posicion&lt;div&gt;max&lt;/div&gt;" style="text;html=1;align=center;verticalAlign=middle;resizable=0;points=[];autosize=1;strokeColor=none;fillColor=none;" vertex="1" parent="1">
          <mxGeometry x="445" y="30" width="70" height="40" as="geometry" />
        </mxCell>
        <mxCell id="bTpCfq0lczgkLvUcE9D3-9" value="Posicion&lt;div&gt;min&lt;/div&gt;" style="text;html=1;align=center;verticalAlign=middle;resizable=0;points=[];autosize=1;strokeColor=none;fillColor=none;" vertex="1" parent="1">
          <mxGeometry x="640" y="160" width="70" height="40" as="geometry" />
        </mxCell>
        <mxCell id="bTpCfq0lczgkLvUcE9D3-10" value="Placa externa de acople&lt;br&gt;para accionador de movimieno" style="text;html=1;align=center;verticalAlign=middle;resizable=0;points=[];autosize=1;strokeColor=none;fillColor=none;" vertex="1" parent="1">
          <mxGeometry x="220" y="100" width="190" height="40" as="geometry" />
        </mxCell>
        <mxCell id="bTpCfq0lczgkLvUcE9D3-11" style="edgeStyle=orthogonalEdgeStyle;rounded=0;orthogonalLoop=1;jettySize=auto;html=1;entryX=0.025;entryY=0.381;entryDx=0;entryDy=0;entryPerimeter=0;" edge="1" parent="1" source="bTpCfq0lczgkLvUcE9D3-10" target="bTpCfq0lczgkLvUcE9D3-1">
          <mxGeometry relative="1" as="geometry">
            <Array as="points">
              <mxPoint x="315" y="170" />
              <mxPoint x="420" y="170" />
            </Array>
          </mxGeometry>
        </mxCell>
        <mxCell id="bTpCfq0lczgkLvUcE9D3-13" value="" style="rounded=1;whiteSpace=wrap;html=1;" vertex="1" parent="1">
          <mxGeometry x="575" y="160" width="10" height="15" as="geometry" />
        </mxCell>
        <mxCell id="bTpCfq0lczgkLvUcE9D3-18" style="edgeStyle=orthogonalEdgeStyle;rounded=0;orthogonalLoop=1;jettySize=auto;html=1;entryX=1;entryY=0.5;entryDx=0;entryDy=0;" edge="1" parent="1" source="bTpCfq0lczgkLvUcE9D3-17" target="bTpCfq0lczgkLvUcE9D3-13">
          <mxGeometry relative="1" as="geometry">
            <Array as="points">
              <mxPoint x="635" y="168" />
            </Array>
          </mxGeometry>
        </mxCell>
        <mxCell id="bTpCfq0lczgkLvUcE9D3-17" value="Regulador&lt;br&gt;de ralenti" style="text;html=1;align=center;verticalAlign=middle;resizable=0;points=[];autosize=1;strokeColor=none;fillColor=none;" vertex="1" parent="1">
          <mxGeometry x="595" y="80" width="80" height="40" as="geometry" />
        </mxCell>
        <mxCell id="bTpCfq0lczgkLvUcE9D3-51" style="edgeStyle=orthogonalEdgeStyle;rounded=0;orthogonalLoop=1;jettySize=auto;html=1;entryX=0;entryY=0.5;entryDx=0;entryDy=0;" edge="1" parent="1" source="bTpCfq0lczgkLvUcE9D3-19" target="bTpCfq0lczgkLvUcE9D3-48">
          <mxGeometry relative="1" as="geometry" />
        </mxCell>
        <mxCell id="bTpCfq0lczgkLvUcE9D3-53" style="edgeStyle=orthogonalEdgeStyle;rounded=0;orthogonalLoop=1;jettySize=auto;html=1;entryX=0;entryY=0.5;entryDx=0;entryDy=0;" edge="1" parent="1" source="bTpCfq0lczgkLvUcE9D3-19" target="bTpCfq0lczgkLvUcE9D3-47">
          <mxGeometry relative="1" as="geometry" />
        </mxCell>
        <mxCell id="bTpCfq0lczgkLvUcE9D3-82" style="edgeStyle=orthogonalEdgeStyle;rounded=0;orthogonalLoop=1;jettySize=auto;html=1;entryX=0;entryY=0.5;entryDx=0;entryDy=0;" edge="1" parent="1" source="bTpCfq0lczgkLvUcE9D3-19" target="bTpCfq0lczgkLvUcE9D3-80">
          <mxGeometry relative="1" as="geometry" />
        </mxCell>
        <mxCell id="bTpCfq0lczgkLvUcE9D3-19" value="" style="shape=cylinder3;whiteSpace=wrap;html=1;boundedLbl=1;backgroundOutline=1;size=15;rotation=-90;" vertex="1" parent="1">
          <mxGeometry x="443" y="370" width="60" height="80" as="geometry" />
        </mxCell>
        <mxCell id="bTpCfq0lczgkLvUcE9D3-20" value="" style="shape=cylinder3;whiteSpace=wrap;html=1;boundedLbl=1;backgroundOutline=1;size=15;rotation=-180;" vertex="1" parent="1">
          <mxGeometry x="610" y="865" width="60" height="80" as="geometry" />
        </mxCell>
        <mxCell id="bTpCfq0lczgkLvUcE9D3-23" value="" style="endArrow=none;html=1;rounded=0;entryX=0.326;entryY=0.995;entryDx=0;entryDy=0;entryPerimeter=0;exitX=0.659;exitY=0.98;exitDx=0;exitDy=0;exitPerimeter=0;" edge="1" parent="1" source="bTpCfq0lczgkLvUcE9D3-20" target="bTpCfq0lczgkLvUcE9D3-19">
          <mxGeometry width="50" height="50" relative="1" as="geometry">
            <mxPoint x="628" y="558" as="sourcePoint" />
            <mxPoint x="658" y="480" as="targetPoint" />
            <Array as="points">
              <mxPoint x="628" y="420" />
            </Array>
          </mxGeometry>
        </mxCell>
        <mxCell id="bTpCfq0lczgkLvUcE9D3-24" value="" style="endArrow=none;html=1;rounded=0;exitX=0.34;exitY=1.003;exitDx=0;exitDy=0;exitPerimeter=0;entryX=0.658;entryY=0.992;entryDx=0;entryDy=0;entryPerimeter=0;" edge="1" parent="1" source="bTpCfq0lczgkLvUcE9D3-20" target="bTpCfq0lczgkLvUcE9D3-19">
          <mxGeometry width="50" height="50" relative="1" as="geometry">
            <mxPoint x="628" y="548" as="sourcePoint" />
            <mxPoint x="553" y="410" as="targetPoint" />
            <Array as="points">
              <mxPoint x="648" y="400" />
            </Array>
          </mxGeometry>
        </mxCell>
        <mxCell id="bTpCfq0lczgkLvUcE9D3-25" style="edgeStyle=orthogonalEdgeStyle;rounded=0;orthogonalLoop=1;jettySize=auto;html=1;entryX=0.5;entryY=1;entryDx=0;entryDy=0;entryPerimeter=0;startArrow=classicThin;startFill=1;" edge="1" parent="1" source="bTpCfq0lczgkLvUcE9D3-19" target="bTpCfq0lczgkLvUcE9D3-20">
          <mxGeometry relative="1" as="geometry" />
        </mxCell>
        <mxCell id="bTpCfq0lczgkLvUcE9D3-26" value="Piston de pedal" style="text;html=1;align=center;verticalAlign=middle;resizable=0;points=[];autosize=1;strokeColor=none;fillColor=none;" vertex="1" parent="1">
          <mxGeometry x="500" y="890" width="110" height="30" as="geometry" />
        </mxCell>
        <mxCell id="bTpCfq0lczgkLvUcE9D3-27" value="Piston de Mariposa" style="text;html=1;align=center;verticalAlign=middle;resizable=0;points=[];autosize=1;strokeColor=none;fillColor=none;" vertex="1" parent="1">
          <mxGeometry x="405" y="440" width="130" height="30" as="geometry" />
        </mxCell>
        <mxCell id="bTpCfq0lczgkLvUcE9D3-28" value="" style="triangle;whiteSpace=wrap;html=1;rotation=-180;" vertex="1" parent="1">
          <mxGeometry x="490" y="640" width="60" height="80" as="geometry" />
        </mxCell>
        <mxCell id="bTpCfq0lczgkLvUcE9D3-29" value="" style="endArrow=classic;html=1;rounded=0;entryX=0;entryY=0.5;entryDx=0;entryDy=0;" edge="1" parent="1" target="bTpCfq0lczgkLvUcE9D3-28">
          <mxGeometry width="50" height="50" relative="1" as="geometry">
            <mxPoint x="630" y="680" as="sourcePoint" />
            <mxPoint x="620" y="710" as="targetPoint" />
          </mxGeometry>
        </mxCell>
        <mxCell id="bTpCfq0lczgkLvUcE9D3-30" value="Valvula de alivio&lt;br&gt;electronica" style="text;html=1;align=center;verticalAlign=middle;resizable=0;points=[];autosize=1;strokeColor=none;fillColor=none;" vertex="1" parent="1">
          <mxGeometry x="435" y="835" width="110" height="40" as="geometry" />
        </mxCell>
        <mxCell id="bTpCfq0lczgkLvUcE9D3-32" style="edgeStyle=orthogonalEdgeStyle;rounded=0;orthogonalLoop=1;jettySize=auto;html=1;" edge="1" parent="1" source="bTpCfq0lczgkLvUcE9D3-31">
          <mxGeometry relative="1" as="geometry">
            <mxPoint x="650" y="600" as="targetPoint" />
          </mxGeometry>
        </mxCell>
        <mxCell id="bTpCfq0lczgkLvUcE9D3-31" value="" style="triangle;whiteSpace=wrap;html=1;rotation=-180;" vertex="1" parent="1">
          <mxGeometry x="720" y="560" width="60" height="80" as="geometry" />
        </mxCell>
        <mxCell id="bTpCfq0lczgkLvUcE9D3-33" value="Compresor" style="text;html=1;align=center;verticalAlign=middle;resizable=0;points=[];autosize=1;strokeColor=none;fillColor=none;" vertex="1" parent="1">
          <mxGeometry x="695" y="630" width="80" height="30" as="geometry" />
        </mxCell>
        <mxCell id="bTpCfq0lczgkLvUcE9D3-34" value="" style="triangle;whiteSpace=wrap;html=1;rotation=-180;" vertex="1" parent="1">
          <mxGeometry x="490" y="760" width="60" height="80" as="geometry" />
        </mxCell>
        <mxCell id="bTpCfq0lczgkLvUcE9D3-35" value="" style="endArrow=classic;html=1;rounded=0;entryX=-0.04;entryY=0.505;entryDx=0;entryDy=0;entryPerimeter=0;" edge="1" parent="1" target="bTpCfq0lczgkLvUcE9D3-34">
          <mxGeometry width="50" height="50" relative="1" as="geometry">
            <mxPoint x="630" y="799.66" as="sourcePoint" />
            <mxPoint x="570" y="800" as="targetPoint" />
          </mxGeometry>
        </mxCell>
        <mxCell id="bTpCfq0lczgkLvUcE9D3-37" value="Sensor de presion" style="text;html=1;align=center;verticalAlign=middle;resizable=0;points=[];autosize=1;strokeColor=none;fillColor=none;" vertex="1" parent="1">
          <mxGeometry x="425" y="710" width="120" height="30" as="geometry" />
        </mxCell>
        <mxCell id="bTpCfq0lczgkLvUcE9D3-39" value="Valvula de alivio&lt;br&gt;mecanica" style="text;html=1;align=center;verticalAlign=middle;resizable=0;points=[];autosize=1;strokeColor=none;fillColor=none;" vertex="1" parent="1">
          <mxGeometry x="695" y="835" width="110" height="40" as="geometry" />
        </mxCell>
        <mxCell id="bTpCfq0lczgkLvUcE9D3-41" value="" style="triangle;whiteSpace=wrap;html=1;" vertex="1" parent="1">
          <mxGeometry x="730" y="760" width="60" height="80" as="geometry" />
        </mxCell>
        <mxCell id="bTpCfq0lczgkLvUcE9D3-42" value="" style="endArrow=classic;html=1;rounded=0;entryX=0;entryY=0.5;entryDx=0;entryDy=0;" edge="1" parent="1" target="bTpCfq0lczgkLvUcE9D3-41">
          <mxGeometry width="50" height="50" relative="1" as="geometry">
            <mxPoint x="650" y="800" as="sourcePoint" />
            <mxPoint x="710" y="790" as="targetPoint" />
          </mxGeometry>
        </mxCell>
        <mxCell id="bTpCfq0lczgkLvUcE9D3-44" value="MULTIPLE DE ADMISION" style="rounded=1;whiteSpace=wrap;html=1;" vertex="1" parent="1">
          <mxGeometry x="45" y="805" width="210" height="90" as="geometry" />
        </mxCell>
        <mxCell id="bTpCfq0lczgkLvUcE9D3-47" value="" style="triangle;whiteSpace=wrap;html=1;rotation=90;" vertex="1" parent="1">
          <mxGeometry x="300" y="560" width="60" height="80" as="geometry" />
        </mxCell>
        <mxCell id="bTpCfq0lczgkLvUcE9D3-52" value="" style="edgeStyle=orthogonalEdgeStyle;rounded=0;orthogonalLoop=1;jettySize=auto;html=1;" edge="1" parent="1" source="bTpCfq0lczgkLvUcE9D3-63" target="bTpCfq0lczgkLvUcE9D3-44">
          <mxGeometry relative="1" as="geometry" />
        </mxCell>
        <mxCell id="bTpCfq0lczgkLvUcE9D3-48" value="" style="triangle;whiteSpace=wrap;html=1;rotation=90;" vertex="1" parent="1">
          <mxGeometry x="120" y="560" width="60" height="80" as="geometry" />
        </mxCell>
        <mxCell id="bTpCfq0lczgkLvUcE9D3-54" value="Valvula de alivio&lt;br&gt;electronica" style="text;html=1;align=center;verticalAlign=middle;resizable=0;points=[];autosize=1;strokeColor=none;fillColor=none;" vertex="1" parent="1">
          <mxGeometry x="280" y="630" width="110" height="40" as="geometry" />
        </mxCell>
        <mxCell id="bTpCfq0lczgkLvUcE9D3-55" value="Valvula&amp;nbsp; reguladora&amp;nbsp;&lt;br&gt;de vacio" style="text;html=1;align=center;verticalAlign=middle;resizable=0;points=[];autosize=1;strokeColor=none;fillColor=none;" vertex="1" parent="1">
          <mxGeometry x="10" y="600" width="130" height="40" as="geometry" />
        </mxCell>
        <mxCell id="bTpCfq0lczgkLvUcE9D3-56" value="" style="endArrow=none;html=1;rounded=0;entryX=0.665;entryY=0.007;entryDx=0;entryDy=0;entryPerimeter=0;exitX=0.001;exitY=0.627;exitDx=0;exitDy=0;exitPerimeter=0;" edge="1" parent="1" source="bTpCfq0lczgkLvUcE9D3-48" target="bTpCfq0lczgkLvUcE9D3-19">
          <mxGeometry width="50" height="50" relative="1" as="geometry">
            <mxPoint x="188" y="420" as="sourcePoint" />
            <mxPoint x="468" y="400" as="targetPoint" />
            <Array as="points">
              <mxPoint x="138" y="400" />
            </Array>
          </mxGeometry>
        </mxCell>
        <mxCell id="bTpCfq0lczgkLvUcE9D3-57" value="" style="endArrow=none;html=1;rounded=0;exitX=0.002;exitY=0.374;exitDx=0;exitDy=0;exitPerimeter=0;" edge="1" parent="1" source="bTpCfq0lczgkLvUcE9D3-48">
          <mxGeometry width="50" height="50" relative="1" as="geometry">
            <mxPoint x="218" y="480" as="sourcePoint" />
            <mxPoint x="160" y="420" as="targetPoint" />
            <Array as="points">
              <mxPoint x="160" y="420" />
            </Array>
          </mxGeometry>
        </mxCell>
        <mxCell id="bTpCfq0lczgkLvUcE9D3-58" value="" style="endArrow=none;html=1;rounded=0;exitX=-0.002;exitY=0.379;exitDx=0;exitDy=0;exitPerimeter=0;" edge="1" parent="1" source="bTpCfq0lczgkLvUcE9D3-80">
          <mxGeometry width="50" height="50" relative="1" as="geometry">
            <mxPoint x="290.08000000000004" y="599.3399999999999" as="sourcePoint" />
            <mxPoint x="280" y="420" as="targetPoint" />
            <Array as="points">
              <mxPoint x="250" y="420" />
            </Array>
          </mxGeometry>
        </mxCell>
        <mxCell id="bTpCfq0lczgkLvUcE9D3-59" value="" style="endArrow=none;html=1;rounded=0;entryX=0.33;entryY=0.01;entryDx=0;entryDy=0;entryPerimeter=0;" edge="1" parent="1" target="bTpCfq0lczgkLvUcE9D3-19">
          <mxGeometry width="50" height="50" relative="1" as="geometry">
            <mxPoint x="340" y="420" as="sourcePoint" />
            <mxPoint x="331" y="430" as="targetPoint" />
          </mxGeometry>
        </mxCell>
        <mxCell id="bTpCfq0lczgkLvUcE9D3-60" value="" style="endArrow=none;html=1;rounded=0;exitX=-0.003;exitY=0.375;exitDx=0;exitDy=0;exitPerimeter=0;" edge="1" parent="1" source="bTpCfq0lczgkLvUcE9D3-47">
          <mxGeometry width="50" height="50" relative="1" as="geometry">
            <mxPoint x="358" y="480" as="sourcePoint" />
            <mxPoint x="340" y="420" as="targetPoint" />
          </mxGeometry>
        </mxCell>
        <mxCell id="bTpCfq0lczgkLvUcE9D3-61" value="" style="endArrow=none;html=1;rounded=0;entryX=0.757;entryY=0.623;entryDx=0;entryDy=0;entryPerimeter=0;exitX=0.017;exitY=0.629;exitDx=0;exitDy=0;exitPerimeter=0;" edge="1" parent="1" source="bTpCfq0lczgkLvUcE9D3-63" target="bTpCfq0lczgkLvUcE9D3-48">
          <mxGeometry width="50" height="50" relative="1" as="geometry">
            <mxPoint x="140" y="690" as="sourcePoint" />
            <mxPoint x="200" y="630" as="targetPoint" />
          </mxGeometry>
        </mxCell>
        <mxCell id="bTpCfq0lczgkLvUcE9D3-62" value="" style="endArrow=none;html=1;rounded=0;exitX=0.023;exitY=0.38;exitDx=0;exitDy=0;exitPerimeter=0;entryX=0.758;entryY=0.38;entryDx=0;entryDy=0;entryPerimeter=0;" edge="1" parent="1" source="bTpCfq0lczgkLvUcE9D3-63" target="bTpCfq0lczgkLvUcE9D3-48">
          <mxGeometry width="50" height="50" relative="1" as="geometry">
            <mxPoint x="190" y="680" as="sourcePoint" />
            <mxPoint x="240" y="630" as="targetPoint" />
          </mxGeometry>
        </mxCell>
        <mxCell id="bTpCfq0lczgkLvUcE9D3-64" value="" style="edgeStyle=orthogonalEdgeStyle;rounded=0;orthogonalLoop=1;jettySize=auto;html=1;" edge="1" parent="1" source="bTpCfq0lczgkLvUcE9D3-48" target="bTpCfq0lczgkLvUcE9D3-63">
          <mxGeometry relative="1" as="geometry">
            <mxPoint x="150" y="630" as="sourcePoint" />
            <mxPoint x="150" y="795" as="targetPoint" />
          </mxGeometry>
        </mxCell>
        <mxCell id="bTpCfq0lczgkLvUcE9D3-63" value="" style="triangle;whiteSpace=wrap;html=1;rotation=90;" vertex="1" parent="1">
          <mxGeometry x="120" y="685" width="60" height="80" as="geometry" />
        </mxCell>
        <mxCell id="bTpCfq0lczgkLvUcE9D3-65" value="Valvula&amp;nbsp; reguladora&amp;nbsp;&lt;br&gt;de paso" style="text;html=1;align=center;verticalAlign=middle;resizable=0;points=[];autosize=1;strokeColor=none;fillColor=none;" vertex="1" parent="1">
          <mxGeometry x="10" y="725" width="130" height="40" as="geometry" />
        </mxCell>
        <mxCell id="bTpCfq0lczgkLvUcE9D3-66" value="" style="endArrow=none;html=1;rounded=0;entryX=0.751;entryY=0.626;entryDx=0;entryDy=0;entryPerimeter=0;exitX=0.453;exitY=0.001;exitDx=0;exitDy=0;exitPerimeter=0;" edge="1" parent="1" source="bTpCfq0lczgkLvUcE9D3-44" target="bTpCfq0lczgkLvUcE9D3-63">
          <mxGeometry width="50" height="50" relative="1" as="geometry">
            <mxPoint x="140" y="800" as="sourcePoint" />
            <mxPoint x="110" y="710" as="targetPoint" />
          </mxGeometry>
        </mxCell>
        <mxCell id="bTpCfq0lczgkLvUcE9D3-67" value="" style="endArrow=none;html=1;rounded=0;entryX=0.747;entryY=0.377;entryDx=0;entryDy=0;entryPerimeter=0;exitX=0.547;exitY=0.001;exitDx=0;exitDy=0;exitPerimeter=0;" edge="1" parent="1" source="bTpCfq0lczgkLvUcE9D3-44" target="bTpCfq0lczgkLvUcE9D3-63">
          <mxGeometry width="50" height="50" relative="1" as="geometry">
            <mxPoint x="160" y="805" as="sourcePoint" />
            <mxPoint x="160" y="740" as="targetPoint" />
          </mxGeometry>
        </mxCell>
        <mxCell id="bTpCfq0lczgkLvUcE9D3-70" value="&lt;font style=&quot;font-size: 30px;&quot;&gt;Circuito secundario&lt;/font&gt;" style="text;html=1;align=center;verticalAlign=middle;resizable=0;points=[];autosize=1;strokeColor=none;fillColor=none;" vertex="1" parent="1">
          <mxGeometry x="60" y="945" width="280" height="50" as="geometry" />
        </mxCell>
        <mxCell id="bTpCfq0lczgkLvUcE9D3-71" value="&lt;font style=&quot;font-size: 30px;&quot;&gt;Circuito primario&lt;/font&gt;" style="text;html=1;align=center;verticalAlign=middle;resizable=0;points=[];autosize=1;strokeColor=none;fillColor=none;" vertex="1" parent="1">
          <mxGeometry x="495" y="945" width="240" height="50" as="geometry" />
        </mxCell>
        <mxCell id="bTpCfq0lczgkLvUcE9D3-72" value="" style="shape=cylinder3;whiteSpace=wrap;html=1;boundedLbl=1;backgroundOutline=1;size=15;rotation=-90;fillColor=none;" vertex="1" parent="1">
          <mxGeometry x="552.5" y="230" width="55" height="170" as="geometry" />
        </mxCell>
        <mxCell id="bTpCfq0lczgkLvUcE9D3-73" value="" style="shape=cylinder3;whiteSpace=wrap;html=1;boundedLbl=1;backgroundOutline=1;size=15;rotation=-90;fillColor=none;dashed=1;dashPattern=8 8;" vertex="1" parent="1">
          <mxGeometry x="437.25" y="186.25" width="44" height="257.5" as="geometry" />
        </mxCell>
        <mxCell id="bTpCfq0lczgkLvUcE9D3-74" value="" style="shape=cylinder3;whiteSpace=wrap;html=1;boundedLbl=1;backgroundOutline=1;size=15;rotation=90;fillColor=none;" vertex="1" parent="1">
          <mxGeometry x="255" y="230" width="55" height="170" as="geometry" />
        </mxCell>
        <mxCell id="bTpCfq0lczgkLvUcE9D3-75" value="" style="endArrow=none;dashed=1;html=1;dashPattern=1 3;strokeWidth=2;rounded=0;" edge="1" parent="1">
          <mxGeometry width="50" height="50" relative="1" as="geometry">
            <mxPoint x="400" y="290" as="sourcePoint" />
            <mxPoint x="400" y="260" as="targetPoint" />
          </mxGeometry>
        </mxCell>
        <mxCell id="bTpCfq0lczgkLvUcE9D3-76" value="" style="endArrow=none;dashed=1;html=1;dashPattern=1 3;strokeWidth=2;rounded=0;exitX=0.983;exitY=0.345;exitDx=0;exitDy=0;exitPerimeter=0;" edge="1" parent="1" source="bTpCfq0lczgkLvUcE9D3-73">
          <mxGeometry width="50" height="50" relative="1" as="geometry">
            <mxPoint x="370" y="310" as="sourcePoint" />
            <mxPoint x="420" y="260" as="targetPoint" />
          </mxGeometry>
        </mxCell>
        <mxCell id="bTpCfq0lczgkLvUcE9D3-77" value="" style="endArrow=none;dashed=1;html=1;dashPattern=1 3;strokeWidth=2;rounded=0;" edge="1" parent="1">
          <mxGeometry width="50" height="50" relative="1" as="geometry">
            <mxPoint x="400" y="260" as="sourcePoint" />
            <mxPoint x="420" y="260" as="targetPoint" />
          </mxGeometry>
        </mxCell>
        <mxCell id="bTpCfq0lczgkLvUcE9D3-78" value="Asistencia de vacio de admision" style="text;html=1;align=center;verticalAlign=middle;resizable=0;points=[];autosize=1;strokeColor=none;fillColor=none;" vertex="1" parent="1">
          <mxGeometry x="30" y="240" width="190" height="30" as="geometry" />
        </mxCell>
        <mxCell id="bTpCfq0lczgkLvUcE9D3-79" value="Comando por desplazamiento de pedal" style="text;html=1;align=center;verticalAlign=middle;resizable=0;points=[];autosize=1;strokeColor=none;fillColor=none;" vertex="1" parent="1">
          <mxGeometry x="595" y="240" width="230" height="30" as="geometry" />
        </mxCell>
        <mxCell id="bTpCfq0lczgkLvUcE9D3-80" value="" style="triangle;whiteSpace=wrap;html=1;rotation=90;" vertex="1" parent="1">
          <mxGeometry x="210" y="560" width="60" height="80" as="geometry" />
        </mxCell>
        <mxCell id="bTpCfq0lczgkLvUcE9D3-81" value="" style="endArrow=none;html=1;rounded=0;entryX=-0.009;entryY=0.604;entryDx=0;entryDy=0;entryPerimeter=0;" edge="1" parent="1" target="bTpCfq0lczgkLvUcE9D3-80">
          <mxGeometry width="50" height="50" relative="1" as="geometry">
            <mxPoint x="160" y="420" as="sourcePoint" />
            <mxPoint x="220" y="420" as="targetPoint" />
            <Array as="points">
              <mxPoint x="230" y="420" />
            </Array>
          </mxGeometry>
        </mxCell>
        <mxCell id="bTpCfq0lczgkLvUcE9D3-83" value="" style="endArrow=none;html=1;rounded=0;exitX=0.006;exitY=0.627;exitDx=0;exitDy=0;exitPerimeter=0;" edge="1" parent="1" source="bTpCfq0lczgkLvUcE9D3-47">
          <mxGeometry width="50" height="50" relative="1" as="geometry">
            <mxPoint x="190" y="490" as="sourcePoint" />
            <mxPoint x="280" y="420" as="targetPoint" />
            <Array as="points">
              <mxPoint x="320" y="420" />
            </Array>
          </mxGeometry>
        </mxCell>
        <mxCell id="bTpCfq0lczgkLvUcE9D3-84" value="Valvula de alivio&lt;br&gt;mecanica" style="text;html=1;align=center;verticalAlign=middle;resizable=0;points=[];autosize=1;strokeColor=none;fillColor=none;" vertex="1" parent="1">
          <mxGeometry x="180" y="630" width="110" height="40" as="geometry" />
        </mxCell>
      </root>
    </mxGraphModel>
  </diagram>
</mxfile>
